<svg version="1.1" id="Layer_1" xmlns="http://www.w3.org/2000/svg" xmlns:xlink="http://www.w3.org/1999/xlink" x="0px" y="0px"
	 width="100%" viewBox="0 0 500 500" enable-background="new 0 0 500 500" xml:space="preserve">
<path fill="#000000" opacity="1.000000" stroke="none" 
	d="
M248.000000,501.000000 
	C165.333359,501.000000 83.166702,501.000000 1.000044,501.000000 
	C1.000029,334.333405 1.000029,167.666779 1.000015,1.000134 
	C167.666565,1.000089 334.333130,1.000089 500.999756,1.000045 
	C500.999847,167.666519 500.999847,334.333038 500.999939,500.999786 
	C416.833344,501.000000 332.666656,501.000000 248.000000,501.000000 
M231.584000,275.936584 
	C231.672409,275.631775 231.760803,275.326965 231.981018,274.264557 
	C231.942856,273.498566 231.904678,272.732574 232.160599,271.366669 
	C232.384720,270.577820 232.608856,269.789001 232.977463,268.330017 
	C232.941254,267.876068 232.905045,267.422089 233.027618,266.343964 
	C233.058502,265.915527 233.089386,265.487061 233.047409,265.031158 
	C233.047409,265.031158 233.073151,265.104645 233.569641,264.930969 
	C233.659256,264.627380 233.748856,264.323792 233.979965,263.289764 
	C234.032654,262.549347 234.085342,261.808899 234.720398,260.820343 
	C234.760620,260.213623 234.800842,259.606873 234.979874,258.251770 
	C234.939636,257.493988 234.899399,256.736206 235.023727,255.543472 
	C235.023727,255.543472 235.102020,255.085083 235.032379,254.998779 
	C235.032379,254.998779 235.078094,255.099503 235.577621,254.932114 
	C235.666061,254.628265 235.754486,254.324432 235.980560,253.289856 
	C236.033264,252.549896 236.085983,251.809952 236.721359,250.821564 
	C236.760910,250.214371 236.800476,249.607178 236.984467,248.370605 
	C237.337524,247.619690 237.690582,246.868774 238.459824,246.039841 
	C238.459824,246.039841 238.882858,246.058777 238.987686,246.843826 
	C239.043411,247.895889 239.099121,248.947968 239.003418,250.700211 
	C239.379700,251.784851 239.755997,252.869507 240.016968,254.712296 
	C240.064178,255.474838 240.111389,256.237396 240.002365,257.709045 
	C240.379684,258.790985 240.757004,259.872894 241.017227,261.712585 
	C241.064545,262.475037 241.111847,263.237488 241.003448,264.709167 
	C241.380814,265.791412 241.758163,266.873688 242.017319,268.713287 
	C242.064407,269.475494 242.111496,270.237732 242.002258,271.708954 
	C242.379486,272.790649 242.756729,273.872314 243.017151,275.711945 
	C243.063568,276.474609 243.109985,277.237274 243.004990,278.699768 
	C243.380295,279.783936 243.755600,280.868073 244.018799,282.633545 
	C244.066986,283.088989 244.115189,283.544464 244.014603,284.679382 
	C244.399414,285.486969 244.784225,286.294525 245.069244,287.964691 
	C245.516800,288.300110 245.962814,288.925964 246.412125,288.928314 
	C256.778503,288.982849 267.145325,288.981812 277.511719,288.927124 
	C277.954773,288.924774 278.394592,288.309814 279.000671,287.212921 
	C278.614502,285.475037 278.228333,283.737152 278.039276,281.529999 
	C278.323181,281.390869 278.607086,281.251740 279.152283,281.706848 
	C280.726959,283.161102 282.301605,284.615326 284.097412,286.632294 
	C284.731140,287.040314 285.364868,287.448364 286.655334,288.144287 
	C295.994812,295.979980 306.696564,295.232300 317.254547,292.164154 
	C333.624725,287.406921 344.737549,276.925598 347.610870,259.639832 
	C349.498016,248.287003 347.542328,237.271851 339.052673,228.732758 
	C335.217529,224.875290 330.155487,222.256302 325.752594,218.939331 
	C321.542725,215.767776 318.045776,212.171356 318.979065,206.159897 
	C319.704041,201.490494 322.873566,199.273727 326.830872,197.671875 
	C331.237732,195.888062 333.867950,197.562698 333.964447,202.275864 
	C334.001953,204.108276 333.925446,205.944458 334.006866,207.774216 
	C334.110870,210.111679 334.443878,211.636398 337.617828,210.277359 
	C340.540253,209.026001 344.158875,209.288589 346.947357,207.861496 
	C351.656097,205.451706 359.411926,207.222748 359.883301,198.519684 
	C360.200256,192.667664 359.840851,183.382034 352.279480,178.747681 
	C342.807556,172.942307 332.640137,173.854279 322.910095,176.768845 
	C310.608063,180.453857 299.692139,187.139633 291.962402,197.705078 
	C287.822113,203.364304 284.737579,210.175858 286.299744,217.326035 
	C287.811646,224.246231 292.213043,229.761078 298.113556,234.108139 
	C304.412231,238.748535 310.506409,243.715439 316.315308,248.954987 
	C320.379547,252.620865 321.046204,257.725769 318.851379,261.368988 
	C316.453674,265.348969 309.711884,268.566803 305.587280,266.634949 
	C300.721313,264.355835 296.396149,260.922119 291.983490,257.350647 
	C291.674713,256.872253 291.365967,256.393890 291.009003,255.993179 
	C291.009003,255.993179 291.078857,255.934204 290.875427,255.311066 
	C288.337341,253.083450 288.239258,255.243607 287.966949,256.979401 
	C287.966949,256.979401 287.946045,256.912567 287.329651,257.121735 
	C287.184204,257.742462 287.038757,258.363190 286.963318,258.980743 
	C286.963318,258.980743 286.947876,258.912384 286.331177,259.121552 
	C286.185303,259.742615 286.039429,260.363678 285.963715,260.980957 
	C285.963715,260.980957 285.949127,260.912201 285.331390,261.121399 
	C285.185516,261.743347 285.039673,262.365326 284.964325,262.981903 
	C284.964325,262.981903 284.950775,262.912476 284.330994,263.119629 
	C284.185364,263.742828 284.039734,264.366058 283.964905,264.982544 
	C283.964905,264.982544 283.952057,264.912628 283.331055,265.118866 
	C283.185638,265.742950 283.040222,266.367035 282.965851,266.983124 
	C282.965851,266.983124 282.953674,266.912628 282.330811,267.119110 
	C282.186890,267.745361 282.042969,268.371613 281.988678,269.002686 
	C281.988678,269.002686 281.993103,268.913055 281.347931,269.237701 
	C280.607880,271.382721 279.867828,273.527740 278.506805,275.991302 
	C277.963654,276.976257 277.420502,277.961243 276.457458,278.963348 
	C276.457458,278.963348 276.045563,278.879578 276.014557,278.171204 
	C275.631989,277.104462 275.249420,276.037750 275.019806,274.331757 
	C274.967377,273.899872 274.914917,273.467957 274.772705,272.285309 
	C272.794556,266.186615 270.816437,260.087921 268.924225,253.467697 
	C268.640564,253.277328 268.356903,253.086945 268.039490,252.975998 
	C268.039490,252.975998 268.113708,252.931931 268.046783,252.295059 
	C267.985382,251.875778 267.923981,251.456512 267.796082,250.314499 
	C267.230835,248.836334 266.665558,247.358154 266.048157,245.261597 
	C265.987122,244.854309 265.926086,244.447037 265.766479,243.280228 
	C265.122009,240.849716 264.477539,238.419220 263.914520,235.466660 
	C263.631653,235.274521 263.348785,235.082382 263.046783,234.961685 
	C263.046783,234.961685 263.118317,234.942841 263.039459,234.301987 
	C262.978210,233.878586 262.916962,233.455170 262.979950,232.357941 
	C262.936066,231.905365 262.892181,231.452774 262.904816,230.414612 
	C262.553070,229.952820 262.201294,229.491028 261.978973,228.356583 
	C261.933441,227.904449 261.887878,227.452332 261.993469,226.339188 
	C261.943512,225.892822 261.893555,225.446442 261.986603,224.568024 
	C261.986603,224.568024 262.043335,224.116470 262.610840,223.897491 
	C263.025665,223.265396 263.440491,222.633301 263.989471,221.569443 
	C263.989471,221.569443 264.047028,221.120972 264.615448,220.901581 
	C265.030060,220.268356 265.444672,219.635147 265.990479,218.569687 
	C265.990479,218.569687 266.048553,218.121750 266.616943,217.902618 
	C267.031128,217.269089 267.445343,216.635559 267.990356,215.569382 
	C267.990356,215.569382 268.047028,215.120956 268.615051,214.901840 
	C269.029144,214.268417 269.443237,213.634995 269.989624,212.568680 
	C269.989624,212.568680 270.044800,212.119415 270.612152,211.900467 
	C271.026093,211.267303 271.440033,210.634140 272.131714,209.360046 
	C273.752045,206.968231 275.372406,204.576401 277.564667,201.938660 
	C277.994507,201.292786 278.424347,200.646912 279.110077,199.386810 
	C280.070862,197.986588 281.031647,196.586380 282.564545,194.939926 
	C282.994476,194.293655 283.424438,193.647400 284.110199,192.386642 
	C285.071106,190.984940 286.031982,189.583221 287.563812,187.936386 
	C287.992828,187.291138 288.421814,186.645874 289.049683,185.465637 
	C289.383453,185.017975 289.717224,184.570312 290.618805,183.904175 
	C291.031677,183.269974 291.444550,182.635788 292.111023,181.386108 
	C293.071686,179.983810 294.032318,178.581497 295.563202,176.934662 
	C295.991638,176.289871 296.420044,175.645065 297.060791,174.449112 
	C297.324738,173.966415 297.588684,173.483719 297.738953,172.257370 
	C296.508270,172.215225 295.277618,172.173096 293.375366,172.155823 
	C292.578583,172.488800 291.781830,172.821777 290.204865,172.996414 
	C289.150482,173.042633 288.096130,173.088852 286.323029,173.198547 
	C285.210632,173.518448 284.098267,173.838333 282.170898,174.001343 
	C280.796021,174.044678 279.421173,174.088028 277.293213,174.224030 
	C275.857452,174.535187 274.421692,174.846344 272.204193,175.001831 
	C271.147522,175.049164 270.090820,175.096497 268.353394,175.023880 
	C267.219452,175.642044 266.085510,176.260208 264.382111,177.087799 
	C263.972656,177.725174 263.563202,178.362534 263.011810,179.429169 
	C263.011810,179.429169 262.948975,179.876892 262.378204,180.084717 
	C261.968872,180.723007 261.559540,181.361298 261.010284,182.428925 
	C261.010284,182.428925 260.944244,182.875671 260.372009,183.081039 
	C259.961243,183.719971 259.550476,184.358887 258.998505,185.429871 
	C258.998505,185.429871 258.919281,185.877457 258.303955,186.122330 
	C257.588470,187.414948 256.873016,188.707565 256.012787,190.429001 
	C256.012787,190.429001 255.950241,190.877258 255.379913,191.085754 
	C254.970428,191.723740 254.560959,192.361740 254.010483,193.428650 
	C254.010483,193.428650 253.943817,193.875229 253.323807,194.118576 
	C252.602631,195.412445 251.881454,196.706299 251.013626,198.429352 
	C251.013626,198.429352 250.952667,198.878784 250.383820,199.088943 
	C249.974228,199.725952 249.564651,200.362961 249.011810,201.428726 
	C249.011810,201.428726 248.946960,201.876144 248.375336,202.082672 
	C247.964645,202.721298 247.553940,203.359909 247.001892,204.428925 
	C247.001892,204.428925 246.929047,204.876053 246.355408,205.084412 
	C245.851822,204.722992 245.348251,204.361572 244.980408,203.250198 
	C244.942078,202.491165 244.903732,201.732132 245.029922,200.547256 
	C245.029922,200.547256 245.095306,200.095459 245.070801,200.012131 
	C245.070801,200.012131 245.077377,200.093155 245.583908,199.936920 
	C245.672485,199.632080 245.761063,199.327225 245.981674,198.293320 
	C246.036118,197.556366 246.090561,196.819397 246.779617,195.771103 
	C246.797897,194.847458 246.816177,193.923798 246.977615,192.327682 
	C246.942108,191.872284 246.906616,191.416901 247.168808,190.363876 
	C247.392899,189.575928 247.616989,188.787979 247.980286,187.276459 
	C248.033768,186.543365 248.087265,185.810257 248.725723,184.827469 
	C248.766190,184.218353 248.806656,183.609238 248.980759,182.247498 
	C248.943405,181.486053 248.906067,180.724594 249.226364,179.287750 
	C250.900635,176.318924 249.021835,175.948776 246.750046,175.967819 
	C243.842102,175.992188 240.934799,176.094193 237.229614,176.019257 
	C233.861374,175.994583 230.493118,175.969894 226.822784,175.293961 
	C225.890808,175.249100 224.958847,175.204224 223.514008,175.036850 
	C223.342712,175.076233 223.171417,175.115631 222.290787,175.008972 
	C221.914536,175.672623 221.538269,176.336273 221.020111,177.829666 
	C221.059235,179.229752 221.098358,180.629852 220.803497,182.673172 
	C220.587372,183.782043 220.371231,184.890900 220.019104,186.829285 
	C220.060730,188.227051 220.102356,189.624832 219.848831,191.628098 
	C219.617493,192.418686 219.386154,193.209259 219.019257,194.752838 
	C219.055573,195.515137 219.091904,196.277420 218.958099,197.771927 
	C218.693192,199.181244 218.428284,200.590546 218.022171,202.672089 
	C218.058029,203.127014 218.093887,203.581924 217.961731,204.730911 
	C217.692810,205.820526 217.423889,206.910141 217.019379,208.750748 
	C217.058426,209.510681 217.097488,210.270630 216.802246,211.673309 
	C216.589111,212.782166 216.375992,213.891006 216.022202,215.670303 
	C216.059998,216.123672 216.097794,216.577057 215.969131,217.725952 
	C215.700027,218.817245 215.430939,219.908554 215.022095,221.670074 
	C215.060303,222.123138 215.098511,222.576202 214.970581,223.724823 
	C214.702240,224.816483 214.433899,225.908157 214.022568,227.668533 
	C214.061890,228.120865 214.101212,228.573181 213.843262,229.629410 
	C213.613953,230.419571 213.384644,231.209732 213.021164,232.671860 
	C213.058548,233.125488 213.095932,233.579102 212.966309,234.727325 
	C212.698486,235.818161 212.430664,236.908997 212.022278,238.668594 
	C212.062088,239.120544 212.101883,239.572479 211.845230,240.628815 
	C211.615997,241.419205 211.386765,242.209595 211.021515,243.670578 
	C211.060196,244.123291 211.098877,244.576019 210.838333,245.631027 
	C210.609848,246.420609 210.381363,247.210175 210.020813,248.671799 
	C210.058838,249.125092 210.096863,249.578384 209.833908,250.632492 
	C209.606308,251.421524 209.378708,252.210556 209.020340,253.673340 
	C209.057571,254.127747 209.094803,254.582169 208.794403,255.676147 
	C208.585266,256.784027 208.376129,257.891937 208.034821,259.514252 
	C208.067261,259.688324 208.099686,259.862396 207.794449,260.676056 
	C207.585297,261.783966 207.376144,262.891907 207.035065,264.512939 
	C207.067856,264.686462 207.100662,264.859985 206.831451,265.633392 
	C206.604675,266.422089 206.377884,267.210754 206.020386,268.671570 
	C206.058640,269.124756 206.096909,269.577911 205.834549,270.632172 
	C205.607254,271.421326 205.379959,272.210449 205.020828,273.670715 
	C205.059830,274.123230 205.098816,274.575714 204.838959,275.630707 
	C204.611099,276.420441 204.383240,277.210144 204.021301,278.669250 
	C204.061798,279.120667 204.102280,279.572113 203.847107,280.628387 
	C203.617722,281.418884 203.388336,282.209351 203.021896,283.667786 
	C203.063644,284.118378 203.105408,284.569000 202.854401,285.626343 
	C202.624786,286.417511 202.395172,287.208679 202.035339,288.511078 
	C202.068878,288.683716 202.102432,288.856323 201.968307,289.756958 
	C201.955826,290.976776 201.943359,292.196594 201.930893,293.416412 
	C203.313187,293.323944 204.695496,293.231476 206.856842,293.014893 
	C207.904495,292.957062 208.952148,292.899231 210.652115,292.992554 
	C211.419586,292.617340 212.187057,292.242126 213.759247,291.983124 
	C214.839493,291.937347 215.919739,291.891602 217.651505,291.998871 
	C218.417328,291.623260 219.183151,291.247620 220.708954,290.983459 
	C221.472626,290.935028 222.236282,290.886597 223.614441,290.988037 
	C224.098236,290.701752 224.582031,290.415466 225.843811,290.012512 
	C230.457687,288.970795 229.779236,285.282990 230.026443,281.545990 
	C230.026443,281.545990 230.097672,281.091370 230.051773,280.994965 
	C230.051773,280.994965 230.078491,281.095764 230.582001,280.934753 
	C230.670319,280.630341 230.758621,280.325928 230.980728,279.266144 
	C230.941925,278.502136 230.903107,277.738129 231.028748,276.547211 
	C231.028748,276.547211 231.096054,276.094696 231.065872,276.006104 
	C231.065872,276.006104 231.078110,276.094055 231.584000,275.936584 
M487.996735,256.121460 
	C488.599579,244.564133 489.202423,233.006805 490.002045,220.473312 
	C490.612732,204.692307 491.223419,188.911316 491.848450,172.759567 
	C488.905029,173.206070 486.362671,173.672379 483.800568,173.966537 
	C472.355225,175.280548 460.913361,176.638916 449.448608,177.759842 
	C446.715149,178.027115 445.670197,179.113419 444.935059,181.687485 
	C439.576050,200.451263 434.112152,219.186096 428.527863,237.884232 
	C423.152710,255.881943 417.593414,273.824646 411.873383,292.584076 
	C414.124969,292.710632 415.859924,293.077209 417.514984,292.853302 
	C423.782379,292.005432 430.000275,290.478943 436.283630,290.174103 
	C440.302490,289.979126 442.000305,288.033447 442.925079,284.927979 
	C444.485199,279.689056 445.587280,274.314301 447.120972,269.066467 
	C447.461823,267.900238 448.713562,266.257599 449.686981,266.153473 
	C453.057068,265.793091 456.489380,266.014557 460.396271,266.014557 
	C459.541473,273.952515 458.814240,281.107513 457.984192,288.250549 
	C457.545990,292.021667 459.154663,293.536011 462.822723,292.996368 
	C469.568604,292.003876 476.355072,291.198639 483.020599,289.814270 
	C484.565796,289.493347 486.745453,287.224030 486.840424,285.736786 
	C487.450287,276.184662 487.561096,266.600708 487.996735,256.121460 
M88.061584,255.598740 
	C90.224274,249.930557 92.386955,244.262360 95.033211,237.326797 
	C94.207550,245.225342 93.486549,251.797394 92.840736,258.376831 
	C91.867012,268.297119 90.922440,278.220398 90.014877,288.146942 
	C89.695084,291.644745 91.530815,292.378845 94.650627,291.780304 
	C101.663597,290.434723 108.749023,289.435486 115.709297,287.869995 
	C117.332542,287.504883 119.572105,285.605072 119.810066,284.133575 
	C120.620232,279.123749 120.630951,273.987396 121.005287,268.903687 
	C121.656761,260.056213 122.096893,251.183212 123.089340,242.373138 
	C124.511909,229.744827 126.352486,217.163651 128.011658,204.561951 
	C129.470337,193.483047 130.924988,182.403625 132.404999,171.145172 
	C131.477127,171.099335 130.137497,170.816437 128.868408,171.005997 
	C121.158409,172.157562 113.445892,173.314606 105.777763,174.709244 
	C103.768280,175.074707 100.734055,175.806534 100.168694,177.187927 
	C94.186432,191.805038 88.619247,206.591812 82.912613,221.322098 
	C81.194817,225.756165 79.399086,230.160049 77.639053,234.577759 
	C77.183434,231.600861 77.561401,228.878128 78.003494,226.165817 
	C79.622566,216.232849 81.338676,206.315002 82.865898,196.368057 
	C83.730293,190.738159 84.335213,185.066971 84.982422,179.405838 
	C85.284256,176.765686 84.753502,174.666656 81.338440,175.019760 
	C71.725403,176.013702 62.098873,176.897903 52.512074,178.099854 
	C51.239204,178.259430 49.487492,179.802307 49.103584,181.055618 
	C44.612846,195.715958 40.548115,210.508270 35.963543,225.138062 
	C29.258741,246.533707 22.222506,267.825470 15.328020,289.161652 
	C14.338850,292.222809 15.981840,293.122040 18.613913,292.997986 
	C24.696272,292.711273 30.802835,292.591919 36.844364,291.913208 
	C40.546894,291.497223 43.735641,290.164764 44.891705,285.584930 
	C48.007301,273.242371 51.612045,261.023560 54.997501,248.748703 
	C56.382385,243.727417 57.702541,238.688309 59.052143,233.657303 
	C59.515930,237.291016 59.260578,240.688614 59.000542,244.085876 
	C58.649773,248.668518 58.351830,253.256058 57.931091,257.832275 
	C56.987495,268.095367 56.023762,278.356964 54.979595,288.610168 
	C54.606277,292.275940 56.333927,293.372681 59.663853,293.045135 
	C63.738747,292.644287 67.818970,292.165436 71.905464,292.063171 
	C74.439186,291.999786 75.397934,291.254120 76.267548,288.657318 
	C79.898308,277.815430 84.008392,267.134003 88.061584,255.598740 
M207.944092,236.287415 
	C211.587296,222.411087 213.780457,208.383911 210.956879,194.096817 
	C207.582642,177.023453 196.307266,168.947189 178.276657,172.868134 
	C165.897842,175.560059 157.001373,183.611893 149.914520,192.915680 
	C132.179337,216.198914 121.880310,242.199631 126.039940,272.244659 
	C127.460182,282.503021 134.868103,292.347473 144.183853,293.832275 
	C153.432770,295.306396 162.702087,293.645935 170.293442,287.984344 
	C177.411636,282.675568 184.213638,276.696381 190.148056,270.105743 
	C198.650833,260.662720 204.319870,249.401230 207.944092,236.287415 
M351.468323,261.975250 
	C349.445892,272.563019 347.423492,283.150757 345.247070,294.544891 
	C354.329529,292.533844 362.095459,290.966736 369.750671,288.974335 
	C371.077698,288.628937 372.206665,286.615753 372.928558,285.130585 
	C373.538025,283.876709 373.360657,282.258881 373.641418,280.823639 
	C375.411652,271.773499 377.687714,262.791809 378.887024,253.667938 
	C380.503204,241.372559 381.050934,240.540222 393.547485,241.061417 
	C393.985229,241.079666 394.413025,241.335938 394.765839,241.454514 
	C391.612335,257.470764 388.482880,273.365021 385.117096,290.459442 
	C394.221985,289.113525 402.497162,287.975372 410.723175,286.552704 
	C411.621552,286.397308 412.713959,284.685089 412.907166,283.556458 
	C414.384827,274.924011 415.627258,266.251709 417.009247,257.602417 
	C419.030426,244.953278 420.738159,232.239014 423.256866,219.688431 
	C426.143646,205.303741 429.504364,190.997406 433.243225,176.810974 
	C434.326874,172.699234 432.462494,172.812607 430.025421,173.002975 
	C423.152191,173.539871 416.276794,174.162781 409.452759,175.114044 
	C408.179993,175.291458 406.383789,176.991501 406.114960,178.261108 
	C403.899902,188.722321 401.693298,199.202530 400.072815,209.767303 
	C398.623596,219.215515 398.451172,219.742905 388.802582,220.995621 
	C387.398712,221.177902 386.040833,221.714706 383.546417,222.388885 
	C386.997437,206.737411 390.289581,191.806335 393.686035,176.402313 
	C384.322937,175.878860 375.364075,175.378021 366.084839,174.859268 
	C364.677582,184.441605 363.432678,193.593567 361.969360,202.710480 
	C360.169250,213.925888 358.203186,225.114853 356.278168,236.309967 
	C354.849640,244.617783 353.372223,252.917206 351.468323,261.975250 
z"/>
<path fill="#FFBE5B" opacity="1.000000" stroke="none" 
	d="
M88.002167,255.996246 
	C84.008392,267.134003 79.898308,277.815430 76.267548,288.657318 
	C75.397934,291.254120 74.439186,291.999786 71.905464,292.063171 
	C67.818970,292.165436 63.738747,292.644287 59.663853,293.045135 
	C56.333927,293.372681 54.606277,292.275940 54.979595,288.610168 
	C56.023762,278.356964 56.987495,268.095367 57.931091,257.832275 
	C58.351830,253.256058 58.649773,248.668518 59.000542,244.085876 
	C59.260578,240.688614 59.515930,237.291016 59.052143,233.657303 
	C57.702541,238.688309 56.382385,243.727417 54.997501,248.748703 
	C51.612045,261.023560 48.007301,273.242371 44.891705,285.584930 
	C43.735641,290.164764 40.546894,291.497223 36.844364,291.913208 
	C30.802835,292.591919 24.696272,292.711273 18.613913,292.997986 
	C15.981840,293.122040 14.338850,292.222809 15.328020,289.161652 
	C22.222506,267.825470 29.258741,246.533707 35.963543,225.138062 
	C40.548115,210.508270 44.612846,195.715958 49.103584,181.055618 
	C49.487492,179.802307 51.239204,178.259430 52.512074,178.099854 
	C62.098873,176.897903 71.725403,176.013702 81.338440,175.019760 
	C84.753502,174.666656 85.284256,176.765686 84.982422,179.405838 
	C84.335213,185.066971 83.730293,190.738159 82.865898,196.368057 
	C81.338676,206.315002 79.622566,216.232849 78.003494,226.165817 
	C77.561401,228.878128 77.183434,231.600861 77.639053,234.577759 
	C79.399086,230.160049 81.194817,225.756165 82.912613,221.322098 
	C88.619247,206.591812 94.186432,191.805038 100.168694,177.187927 
	C100.734055,175.806534 103.768280,175.074707 105.777763,174.709244 
	C113.445892,173.314606 121.158409,172.157562 128.868408,171.005997 
	C130.137497,170.816437 131.477127,171.099335 132.404999,171.145172 
	C130.924988,182.403625 129.470337,193.483047 128.011658,204.561951 
	C126.352486,217.163651 124.511909,229.744827 123.089340,242.373138 
	C122.096893,251.183212 121.656761,260.056213 121.005287,268.903687 
	C120.630951,273.987396 120.620232,279.123749 119.810066,284.133575 
	C119.572105,285.605072 117.332542,287.504883 115.709297,287.869995 
	C108.749023,289.435486 101.663597,290.434723 94.650627,291.780304 
	C91.530815,292.378845 89.695084,291.644745 90.014877,288.146942 
	C90.922440,278.220398 91.867012,268.297119 92.840736,258.376831 
	C93.486549,251.797394 94.207550,245.225342 95.033211,237.326797 
	C92.386955,244.262360 90.224274,249.930557 88.002167,255.996246 
z"/>
<path fill="#FFBE5B" opacity="1.000000" stroke="none" 
	d="
M207.724609,236.644394 
	C204.319870,249.401230 198.650833,260.662720 190.148056,270.105743 
	C184.213638,276.696381 177.411636,282.675568 170.293442,287.984344 
	C162.702087,293.645935 153.432770,295.306396 144.183853,293.832275 
	C134.868103,292.347473 127.460182,282.503021 126.039940,272.244659 
	C121.880310,242.199631 132.179337,216.198914 149.914520,192.915680 
	C157.001373,183.611893 165.897842,175.560059 178.276657,172.868134 
	C196.307266,168.947189 207.582642,177.023453 210.956879,194.096817 
	C213.780457,208.383911 211.587296,222.411087 207.724609,236.644394 
M158.061707,226.646317 
	C155.718979,233.836853 153.008331,240.936020 151.190247,248.256851 
	C150.294189,251.864883 150.585785,255.952545 151.152893,259.700165 
	C152.272888,267.101227 162.575989,268.977661 169.477432,262.936096 
	C183.750198,250.441544 188.040787,233.682861 187.757080,215.746323 
	C187.608292,206.339935 182.796021,204.900253 174.062073,208.571396 
	C166.248184,211.855820 161.937500,218.634766 158.061707,226.646317 
z"/>
<path fill="#FFBE5C" opacity="1.000000" stroke="none" 
	d="
M351.692444,261.597809 
	C353.372223,252.917206 354.849640,244.617783 356.278168,236.309967 
	C358.203186,225.114853 360.169250,213.925888 361.969360,202.710480 
	C363.432678,193.593567 364.677582,184.441605 366.084839,174.859268 
	C375.364075,175.378021 384.322937,175.878860 393.686035,176.402313 
	C390.289581,191.806335 386.997437,206.737411 383.546417,222.388885 
	C386.040833,221.714706 387.398712,221.177902 388.802582,220.995621 
	C398.451172,219.742905 398.623596,219.215515 400.072815,209.767303 
	C401.693298,199.202530 403.899902,188.722321 406.114960,178.261108 
	C406.383789,176.991501 408.179993,175.291458 409.452759,175.114044 
	C416.276794,174.162781 423.152191,173.539871 430.025421,173.002975 
	C432.462494,172.812607 434.326874,172.699234 433.243225,176.810974 
	C429.504364,190.997406 426.143646,205.303741 423.256866,219.688431 
	C420.738159,232.239014 419.030426,244.953278 417.009247,257.602417 
	C415.627258,266.251709 414.384827,274.924011 412.907166,283.556458 
	C412.713959,284.685089 411.621552,286.397308 410.723175,286.552704 
	C402.497162,287.975372 394.221985,289.113525 385.117096,290.459442 
	C388.482880,273.365021 391.612335,257.470764 394.765839,241.454514 
	C394.413025,241.335938 393.985229,241.079666 393.547485,241.061417 
	C381.050934,240.540222 380.503204,241.372559 378.887024,253.667938 
	C377.687714,262.791809 375.411652,271.773499 373.641418,280.823639 
	C373.360657,282.258881 373.538025,283.876709 372.928558,285.130585 
	C372.206665,286.615753 371.077698,288.628937 369.750671,288.974335 
	C362.095459,290.966736 354.329529,292.533844 345.247070,294.544891 
	C347.423492,283.150757 349.445892,272.563019 351.692444,261.597809 
z"/>
<path fill="#FFBE5C" opacity="1.000000" stroke="none" 
	d="
M487.835846,257.027191 
	C487.561096,266.600708 487.450287,276.184662 486.840424,285.736786 
	C486.745453,287.224030 484.565796,289.493347 483.020599,289.814270 
	C476.355072,291.198639 469.568604,292.003876 462.822723,292.996368 
	C459.154663,293.536011 457.545990,292.021667 457.984192,288.250549 
	C458.814240,281.107513 459.541473,273.952515 460.396271,266.014557 
	C456.489380,266.014557 453.057068,265.793091 449.686981,266.153473 
	C448.713562,266.257599 447.461823,267.900238 447.120972,269.066467 
	C445.587280,274.314301 444.485199,279.689056 442.925079,284.927979 
	C442.000305,288.033447 440.302490,289.979126 436.283630,290.174103 
	C430.000275,290.478943 423.782379,292.005432 417.514984,292.853302 
	C415.859924,293.077209 414.124969,292.710632 411.873383,292.584076 
	C417.593414,273.824646 423.152710,255.881943 428.527863,237.884232 
	C434.112152,219.186096 439.576050,200.451263 444.935059,181.687485 
	C445.670197,179.113419 446.715149,178.027115 449.448608,177.759842 
	C460.913361,176.638916 472.355225,175.280548 483.800568,173.966537 
	C486.362671,173.672379 488.905029,173.206070 491.848450,172.759567 
	C491.223419,188.911316 490.612732,204.692307 489.596924,221.089966 
	C488.907593,222.451035 488.408508,223.184998 488.371643,223.941483 
	C487.886719,233.892288 487.438568,243.845230 487.072357,253.800995 
	C487.033203,254.865601 487.567535,255.951294 487.835846,257.027191 
M463.007446,205.593674 
	C459.522522,219.874466 456.037598,234.155258 452.420807,248.976318 
	C456.725067,248.776245 460.819641,250.424469 461.880249,245.508743 
	C462.699890,241.709946 462.700531,237.727844 462.982880,233.821274 
	C463.396790,228.094772 463.601562,222.350082 464.144104,216.636734 
	C464.774323,209.999725 465.673126,203.388214 466.455353,196.765625 
	C466.147003,196.719208 465.838654,196.672775 465.530304,196.626358 
	C464.707001,199.333588 463.883698,202.040817 463.007446,205.593674 
z"/>
<path fill="#FFBE5B" opacity="1.000000" stroke="none" 
	d="
M219.128235,197.039719 
	C219.091904,196.277420 219.055573,195.515137 219.365387,194.292160 
	C219.855667,192.895187 219.999832,191.958893 220.143982,191.022598 
	C220.102356,189.624832 220.060730,188.227051 220.383423,186.310028 
	C220.877655,184.537155 221.007568,183.283554 221.137482,182.029938 
	C221.098358,180.629852 221.059235,179.229752 221.363220,177.340439 
	C222.137589,176.285812 222.568863,175.720413 223.000122,175.154999 
	C223.171417,175.115631 223.342712,175.076233 224.038147,175.286789 
	C225.416489,175.672882 226.270691,175.809052 227.124878,175.945221 
	C230.493118,175.969894 233.861374,175.994583 237.968475,176.293488 
	C241.984543,178.028442 246.767380,174.983398 248.868713,179.963150 
	C248.906067,180.724594 248.943405,181.486053 248.662689,182.693130 
	C248.276642,183.784897 248.208694,184.431030 248.140747,185.077164 
	C248.087265,185.810257 248.033768,186.543365 247.632736,187.723022 
	C247.147156,189.100220 247.009140,190.030853 246.871109,190.961502 
	C246.906616,191.416901 246.942108,191.872284 246.619659,192.760269 
	C246.222809,194.156052 246.183914,195.119247 246.145020,196.082443 
	C246.090561,196.819397 246.036118,197.556366 245.754974,198.811035 
	C245.335983,199.558792 245.185684,199.813583 245.077377,200.093155 
	C245.077377,200.093155 245.070801,200.012131 244.955612,200.123932 
	C244.619461,200.477386 244.627777,200.723190 244.865387,200.973099 
	C244.903732,201.732132 244.942078,202.491165 244.635986,203.712524 
	C244.193161,205.782166 244.094742,207.389465 243.760406,209.050934 
	C243.241043,209.411484 242.957611,209.717865 242.674179,210.024246 
	C242.783737,210.123459 242.893295,210.222672 243.002838,210.321884 
	C243.336319,209.882477 243.669785,209.443069 244.329254,208.910950 
	C245.413177,207.504181 246.171112,206.190109 246.929047,204.876053 
	C246.929047,204.876053 247.001892,204.428925 247.362427,204.121506 
	C248.130951,203.168106 248.538956,202.522125 248.946960,201.876144 
	C248.946960,201.876144 249.011810,201.428726 249.371918,201.121048 
	C250.138916,200.168503 250.545807,199.523651 250.952667,198.878784 
	C250.952667,198.878784 251.013626,198.429352 251.400024,198.112274 
	C252.505539,196.488541 253.224686,195.181885 253.943817,193.875229 
	C253.943817,193.875229 254.010483,193.428650 254.369919,193.121124 
	C255.136322,192.168152 255.543289,191.522705 255.950256,190.877258 
	C255.950241,190.877258 256.012787,190.429001 256.398621,190.112122 
	C257.496033,188.489304 258.207642,187.183380 258.919281,185.877457 
	C258.919281,185.877457 258.998505,185.429871 259.359375,185.122070 
	C260.128235,184.168060 260.536255,183.521866 260.944244,182.875671 
	C260.944244,182.875671 261.010284,182.428925 261.369324,182.121292 
	C262.135254,181.168076 262.542114,180.522491 262.948975,179.876892 
	C262.948975,179.876892 263.011810,179.429169 263.371399,179.121338 
	C264.137878,178.168472 264.544708,177.523422 264.951538,176.878372 
	C266.085510,176.260208 267.219452,175.642044 268.940582,175.271057 
	C270.680481,175.397980 271.833221,175.277740 272.985931,175.157486 
	C274.421692,174.846344 275.857452,174.535187 277.936523,174.373978 
	C280.048523,174.402023 281.517181,174.280121 282.985870,174.158234 
	C284.098267,173.838333 285.210632,173.518448 286.926575,173.356537 
	C288.681763,173.394608 289.833405,173.274689 290.985046,173.154755 
	C291.781830,172.821777 292.578583,172.488800 293.975525,172.342010 
	C295.667999,172.685791 296.760315,172.843414 297.852631,173.001038 
	C297.588684,173.483719 297.324738,173.966415 296.660156,174.821915 
	C295.837311,175.856201 295.415131,176.517700 294.992981,177.179199 
	C294.032318,178.581497 293.071686,179.983810 291.694275,181.785797 
	C290.868683,182.831207 290.459839,183.476929 290.050995,184.122665 
	C289.717224,184.570312 289.383453,185.017975 288.655304,185.830231 
	C287.838257,186.857071 287.415558,187.519287 286.992889,188.181519 
	C286.031982,189.583221 285.071106,190.984940 283.686615,192.790863 
	C282.839478,193.858780 282.415955,194.522476 281.992432,195.186172 
	C281.031647,196.586380 280.070862,197.986588 278.686584,199.790833 
	C277.839661,200.858109 277.416229,201.521347 276.992767,202.184570 
	C275.372406,204.576401 273.752045,206.968231 271.703369,209.772644 
	C270.864929,210.829971 270.454865,211.474701 270.044800,212.119415 
	C270.044800,212.119415 269.989624,212.568680 269.633545,212.876923 
	C268.867310,213.830444 268.457153,214.475693 268.046997,215.120941 
	C268.047028,215.120956 267.990356,215.569382 267.634735,215.877258 
	C266.868927,216.830688 266.458740,217.476227 266.048553,218.121750 
	C266.048553,218.121750 265.990479,218.569687 265.634766,218.877365 
	C264.868378,219.830353 264.457703,220.475662 264.047058,221.120972 
	C264.047028,221.120972 263.989471,221.569443 263.632874,221.877045 
	C262.865295,222.828598 262.454315,223.472534 262.043335,224.116455 
	C262.043335,224.116470 261.986603,224.568024 261.672180,224.852509 
	C261.519257,225.758057 261.680786,226.379135 261.842316,227.000198 
	C261.887878,227.452332 261.933441,227.904449 261.774109,228.890259 
	C261.995605,229.949356 262.421967,230.474777 262.848297,231.000198 
	C262.892181,231.452774 262.936066,231.905365 262.770142,232.877289 
	C262.746307,233.912048 262.932312,234.427444 263.118317,234.942841 
	C263.118317,234.942841 263.046783,234.961685 263.150635,235.131226 
	C263.405334,235.565384 263.598206,235.794708 263.833069,235.988708 
	C264.477539,238.419220 265.122009,240.849716 265.668182,243.836609 
	C265.746704,244.888672 265.923492,245.384323 266.100311,245.879990 
	C266.665558,247.358154 267.230835,248.836334 267.680206,250.855011 
	C267.747467,251.907654 267.930573,252.419800 268.113708,252.931931 
	C268.113708,252.931931 268.039490,252.975998 268.151062,253.140442 
	C268.412262,253.568542 268.604156,253.796661 268.838318,253.989243 
	C270.816437,260.087921 272.794556,266.186615 274.662964,272.828247 
	C274.657745,273.904449 274.762299,274.437744 274.866821,274.971008 
	C275.249420,276.037750 275.631989,277.104462 276.034851,278.862549 
	C276.650818,280.369049 277.246490,281.184143 277.842194,281.999268 
	C278.228333,283.737152 278.614502,285.475037 278.460815,287.623596 
	C272.135895,288.009583 266.349243,288.059174 260.566223,287.937500 
	C255.671906,287.834503 250.781754,287.533264 245.904785,286.963135 
	C245.334335,285.737610 244.748856,284.868744 244.163376,283.999908 
	C244.115189,283.544464 244.066986,283.088989 244.265808,282.041168 
	C244.060654,280.299164 243.608521,279.149567 243.156403,277.999939 
	C243.109985,277.237274 243.063568,276.474609 243.265717,275.080627 
	C243.062378,273.299530 242.610489,272.149719 242.158600,270.999939 
	C242.111496,270.237732 242.064407,269.475494 242.266052,268.081696 
	C242.062897,266.300049 241.611023,265.149994 241.159149,263.999939 
	C241.111847,263.237488 241.064545,262.475037 241.265778,261.081177 
	C241.062408,259.299805 240.610504,258.149872 240.158600,256.999939 
	C240.111389,256.237396 240.064178,255.474838 240.265137,254.080841 
	C240.060486,252.299606 239.607651,251.149826 239.154816,250.000031 
	C239.099121,248.947968 239.043411,247.895889 239.101944,246.286499 
	C239.128830,245.370895 239.041458,245.012589 238.954086,244.654297 
	C238.650604,245.142151 238.347107,245.630005 238.043640,246.117859 
	C237.690582,246.868774 237.337524,247.619690 236.661926,248.754883 
	C236.272491,249.782761 236.205597,250.426376 236.138702,251.069992 
	C236.085983,251.809952 236.033264,252.549896 235.751495,253.809921 
	C235.328903,254.560257 235.180786,254.816757 235.078094,255.099503 
	C235.078094,255.099503 235.032379,254.998779 234.938171,255.112000 
	C234.620255,255.469254 234.625305,255.720322 234.859161,255.978409 
	C234.899399,256.736206 234.939636,257.493988 234.660110,258.695312 
	C234.272903,259.782074 234.205460,260.425293 234.138031,261.068481 
	C234.085342,261.808899 234.032654,262.549347 233.748657,263.810760 
	C233.322495,264.562500 233.174438,264.820129 233.073151,265.104645 
	C233.073151,265.104645 233.047409,265.031158 232.892700,265.184357 
	C232.781601,265.881073 232.825241,266.424622 232.868866,266.968140 
	C232.905045,267.422089 232.941254,267.876068 232.628021,268.750488 
	C232.141205,270.102844 232.003845,271.034698 231.866501,271.966583 
	C231.904678,272.732574 231.942856,273.498566 231.754456,274.796692 
	C231.335434,275.558899 231.185501,275.813965 231.078110,276.094055 
	C231.078110,276.094055 231.065872,276.006104 230.953339,276.120453 
	C230.619537,276.476654 230.627365,276.723083 230.864288,276.974121 
	C230.903107,277.738129 230.941925,278.502136 230.753372,279.797638 
	C230.333130,280.559143 230.183960,280.814697 230.078491,281.095764 
	C230.078491,281.095764 230.051773,280.994965 229.946625,281.113220 
	C229.619553,281.474091 229.626404,281.722198 229.862030,281.975800 
	C229.779236,285.282990 230.457687,288.970795 225.277054,289.889191 
	C224.140182,290.123291 223.570068,290.480713 222.999939,290.838135 
	C222.236282,290.886597 221.472626,290.935028 220.106384,290.747375 
	C218.669189,290.956177 217.834595,291.401001 216.999985,291.845856 
	C215.919739,291.891602 214.839493,291.937347 213.132675,291.746277 
	C211.670670,291.953430 210.835236,292.397430 209.999817,292.841431 
	C208.952148,292.899231 207.904495,292.957062 206.238800,292.842590 
	C204.459152,291.456482 203.297577,290.242737 202.136002,289.028961 
	C202.102432,288.856323 202.068878,288.683716 202.377808,288.170380 
	C202.862564,286.892975 203.004852,285.956299 203.147156,285.019592 
	C203.105408,284.569000 203.063644,284.118378 203.368393,283.249237 
	C203.857513,281.894958 204.000153,280.959259 204.142776,280.023529 
	C204.102280,279.572113 204.061798,279.120667 204.366653,278.250244 
	C204.853943,276.896912 204.995880,275.962555 205.137817,275.028229 
	C205.098816,274.575714 205.059830,274.123230 205.365326,273.251129 
	C205.851593,271.898071 205.993378,270.964569 206.135178,270.031097 
	C206.096909,269.577911 206.058640,269.124756 206.364471,268.251648 
	C206.850189,266.898956 206.991821,265.966248 207.133453,265.033508 
	C207.100662,264.859985 207.067856,264.686462 207.396240,264.150635 
	C207.882309,262.537720 208.007202,261.287079 208.132095,260.036469 
	C208.099686,259.862396 208.067261,259.688324 208.396118,259.151276 
	C208.882294,257.537720 209.007172,256.287140 209.132034,255.036575 
	C209.094803,254.582169 209.057571,254.127747 209.364441,253.252579 
	C209.850677,251.898438 209.992783,250.965057 210.134888,250.031677 
	C210.096863,249.578384 210.058838,249.125092 210.365417,248.251709 
	C210.852524,246.897308 210.995056,245.963028 211.137573,245.028732 
	C211.098877,244.576019 211.060196,244.123291 211.367645,243.250763 
	C211.856415,241.895447 211.999054,240.959946 212.141693,240.024429 
	C212.101883,239.572479 212.062088,239.120544 212.388184,238.228851 
	C212.880493,236.536987 213.006897,235.284866 213.133301,234.032730 
	C213.095932,233.579102 213.058548,233.125488 213.366562,232.251572 
	C213.854813,230.896027 213.997665,229.960770 214.140533,229.025513 
	C214.101212,228.573181 214.061890,228.120865 214.389404,227.228607 
	C214.883087,225.535538 215.009918,224.282394 215.136734,223.029266 
	C215.098511,222.576202 215.060303,222.123138 215.387665,221.229736 
	C215.880707,219.536392 216.008163,218.283417 216.135620,217.030426 
	C216.097794,216.577057 216.059998,216.123672 216.388123,215.229752 
	C216.881531,213.536316 217.009033,212.283447 217.136536,211.030563 
	C217.097488,210.270630 217.058426,209.510681 217.383575,208.270660 
	C217.875107,206.539337 218.002426,205.288086 218.129761,204.036850 
	C218.093887,203.581924 218.058029,203.127014 218.401062,202.216003 
	C218.896042,200.186523 219.012131,198.613129 219.128235,197.039719 
z"/>
<path fill="#FFBE5B" opacity="1.000000" stroke="none" 
	d="
M291.836517,257.989014 
	C296.396149,260.922119 300.721313,264.355835 305.587280,266.634949 
	C309.711884,268.566803 316.453674,265.348969 318.851379,261.368988 
	C321.046204,257.725769 320.379547,252.620865 316.315308,248.954987 
	C310.506409,243.715439 304.412231,238.748535 298.113556,234.108139 
	C292.213043,229.761078 287.811646,224.246231 286.299744,217.326035 
	C284.737579,210.175858 287.822113,203.364304 291.962402,197.705078 
	C299.692139,187.139633 310.608063,180.453857 322.910095,176.768845 
	C332.640137,173.854279 342.807556,172.942307 352.279480,178.747681 
	C359.840851,183.382034 360.200256,192.667664 359.883301,198.519684 
	C359.411926,207.222748 351.656097,205.451706 346.947357,207.861496 
	C344.158875,209.288589 340.540253,209.026001 337.617828,210.277359 
	C334.443878,211.636398 334.110870,210.111679 334.006866,207.774216 
	C333.925446,205.944458 334.001953,204.108276 333.964447,202.275864 
	C333.867950,197.562698 331.237732,195.888062 326.830872,197.671875 
	C322.873566,199.273727 319.704041,201.490494 318.979065,206.159897 
	C318.045776,212.171356 321.542725,215.767776 325.752594,218.939331 
	C330.155487,222.256302 335.217529,224.875290 339.052673,228.732758 
	C347.542328,237.271851 349.498016,248.287003 347.610870,259.639832 
	C344.737549,276.925598 333.624725,287.406921 317.254547,292.164154 
	C306.696564,295.232300 295.994812,295.979980 286.234589,287.710815 
	C285.167999,286.874756 284.522125,286.472168 283.876282,286.069580 
	C282.301605,284.615326 280.726959,283.161102 278.967499,281.092133 
	C278.147614,279.967010 277.512482,279.456635 276.877380,278.946228 
	C277.420502,277.961243 277.963654,276.976257 278.980530,275.578369 
	C280.300537,273.081299 281.146820,270.997162 281.993103,268.913055 
	C281.993103,268.913055 281.988678,269.002686 282.277527,268.916077 
	C282.695465,268.190521 282.824585,267.551575 282.953674,266.912628 
	C282.953674,266.912628 282.965851,266.983124 283.267212,266.909302 
	C283.696411,266.194519 283.824249,265.553558 283.952087,264.912628 
	C283.952057,264.912628 283.964905,264.982544 284.268982,264.912872 
	C284.698975,264.199615 284.824860,263.556061 284.950775,262.912476 
	C284.950775,262.912476 284.964325,262.981903 285.271942,262.917297 
	C285.702759,262.205872 285.825928,261.559021 285.949127,260.912201 
	C285.949127,260.912201 285.963715,260.980957 286.275513,260.923218 
	C286.707520,260.214478 286.827698,259.563416 286.947876,258.912384 
	C286.947876,258.912384 286.963318,258.980743 287.277039,258.924683 
	C287.709198,258.216583 287.827637,257.564575 287.946045,256.912567 
	C287.946045,256.912567 287.966949,256.979401 288.276947,256.983948 
	C289.417572,256.637085 290.248199,256.285645 291.078857,255.934204 
	C291.078857,255.934204 291.009003,255.993179 290.930084,256.248505 
	C291.179626,256.998901 291.508057,257.493958 291.836517,257.989014 
z"/>
<path fill="#FFF3E0" opacity="1.000000" stroke="none" 
	d="
M487.916290,256.574341 
	C487.567535,255.951294 487.033203,254.865601 487.072357,253.800995 
	C487.438568,243.845230 487.886719,233.892288 488.371643,223.941483 
	C488.408508,223.184998 488.907593,222.451035 489.498535,221.578049 
	C489.202423,233.006805 488.599579,244.564133 487.916290,256.574341 
z"/>
<path fill="#FFF9F1" opacity="1.000000" stroke="none" 
	d="
M245.889771,287.319763 
	C250.781754,287.533264 255.671906,287.834503 260.566223,287.937500 
	C266.349243,288.059174 272.135895,288.009583 278.378418,288.007263 
	C278.394592,288.309814 277.954773,288.924774 277.511719,288.927124 
	C267.145325,288.981812 256.778503,288.982849 246.412125,288.928314 
	C245.962814,288.925964 245.516800,288.300110 245.302017,287.578735 
	C245.534790,287.192780 245.889771,287.319763 245.889771,287.319763 
z"/>
<path fill="#FFBE5C" opacity="1.000000" stroke="none" 
	d="
M249.047546,179.625458 
	C246.767380,174.983398 241.984543,178.028442 238.367279,176.365234 
	C240.934799,176.094193 243.842102,175.992188 246.750046,175.967819 
	C249.021835,175.948776 250.900635,176.318924 249.047546,179.625458 
z"/>
<path fill="#FFBE5C" opacity="1.000000" stroke="none" 
	d="
M202.052155,289.392944 
	C203.297577,290.242737 204.459152,291.456482 205.849274,292.904633 
	C204.695496,293.231476 203.313187,293.323944 201.930893,293.416412 
	C201.943359,292.196594 201.955826,290.976776 202.052155,289.392944 
z"/>
<path fill="#FFBE5C" opacity="1.000000" stroke="none" 
	d="
M246.642227,204.980225 
	C246.171112,206.190109 245.413177,207.504181 244.327621,208.909119 
	C244.000000,209.000000 243.996338,208.996765 243.996338,208.996765 
	C244.094742,207.389465 244.193161,205.782166 244.568115,204.087509 
	C245.348251,204.361572 245.851822,204.722992 246.642227,204.980225 
z"/>
<path fill="#FFF3E0" opacity="1.000000" stroke="none" 
	d="
M281.670532,269.075378 
	C281.146820,270.997162 280.300537,273.081299 279.291016,275.419067 
	C279.867828,273.527740 280.607880,271.382721 281.670532,269.075378 
z"/>
<path fill="#FFBE5C" opacity="1.000000" stroke="none" 
	d="
M276.667419,278.954773 
	C277.512482,279.456635 278.147614,279.967010 278.836853,280.795013 
	C278.607086,281.251740 278.323181,281.390869 277.940735,281.764648 
	C277.246490,281.184143 276.650818,280.369049 276.050354,279.216736 
	C276.045563,278.879578 276.457458,278.963348 276.667419,278.954773 
z"/>
<path fill="#FFBE5C" opacity="1.000000" stroke="none" 
	d="
M219.043167,197.405823 
	C219.012131,198.613129 218.896042,200.186523 218.471664,201.879898 
	C218.428284,200.590546 218.693192,199.181244 219.043167,197.405823 
z"/>
<path fill="#FFBE5C" opacity="1.000000" stroke="none" 
	d="
M207.963272,260.356262 
	C208.007202,261.287079 207.882309,262.537720 207.462204,263.894073 
	C207.376144,262.891907 207.585297,261.783966 207.963272,260.356262 
z"/>
<path fill="#FFBE5C" opacity="1.000000" stroke="none" 
	d="
M240.080475,257.354492 
	C240.610504,258.149872 241.062408,259.299805 241.324310,260.702271 
	C240.757004,259.872894 240.379684,258.790985 240.080475,257.354492 
z"/>
<path fill="#FFBE5C" opacity="1.000000" stroke="none" 
	d="
M208.963226,255.356354 
	C209.007172,256.287140 208.882294,257.537720 208.462219,258.894043 
	C208.376129,257.891937 208.585266,256.784027 208.963226,255.356354 
z"/>
<path fill="#FFBE5C" opacity="1.000000" stroke="none" 
	d="
M241.081299,264.354553 
	C241.611023,265.149994 242.062897,266.300049 242.325134,267.703003 
	C241.758163,266.873688 241.380814,265.791412 241.081299,264.354553 
z"/>
<path fill="#FFBE5C" opacity="1.000000" stroke="none" 
	d="
M242.080429,271.354431 
	C242.610489,272.149719 243.062378,273.299530 243.324127,274.701660 
	C242.756729,273.872314 242.379486,272.790649 242.080429,271.354431 
z"/>
<path fill="#FFBE5C" opacity="1.000000" stroke="none" 
	d="
M220.970490,182.351562 
	C221.007568,183.283554 220.877655,184.537155 220.451416,185.895264 
	C220.371231,184.890900 220.587372,183.782043 220.970490,182.351562 
z"/>
<path fill="#FFBE5C" opacity="1.000000" stroke="none" 
	d="
M216.969391,211.351929 
	C217.009033,212.283447 216.881531,213.536316 216.458435,214.894531 
	C216.375992,213.891006 216.589111,212.782166 216.969391,211.351929 
z"/>
<path fill="#FFBE5C" opacity="1.000000" stroke="none" 
	d="
M216.052368,217.378189 
	C216.008163,218.283417 215.880707,219.536392 215.457550,220.894623 
	C215.430939,219.908554 215.700027,218.817245 216.052368,217.378189 
z"/>
<path fill="#FFBE5C" opacity="1.000000" stroke="none" 
	d="
M215.053650,223.377045 
	C215.009918,224.282394 214.883087,225.535538 214.460907,226.894241 
	C214.433899,225.908157 214.702240,224.816483 215.053650,223.377045 
z"/>
<path fill="#FFBE5C" opacity="1.000000" stroke="none" 
	d="
M239.079117,250.350128 
	C239.607651,251.149826 240.060486,252.299606 240.322800,253.701767 
	C239.755997,252.869507 239.379700,251.784851 239.079117,250.350128 
z"/>
<path fill="#FFBE5C" opacity="1.000000" stroke="none" 
	d="
M218.045746,204.383881 
	C218.002426,205.288086 217.875107,206.539337 217.451385,207.895157 
	C217.423889,206.910141 217.692810,205.820526 218.045746,204.383881 
z"/>
<path fill="#FFBE5C" opacity="1.000000" stroke="none" 
	d="
M213.049805,234.380035 
	C213.006897,235.284866 212.880493,236.536987 212.458466,237.894485 
	C212.430664,236.908997 212.698486,235.818161 213.049805,234.380035 
z"/>
<path fill="#FFBE5C" opacity="1.000000" stroke="none" 
	d="
M246.462311,195.926773 
	C246.183914,195.119247 246.222809,194.156052 246.548080,193.096497 
	C246.816177,193.923798 246.797897,194.847458 246.462311,195.926773 
z"/>
<path fill="#FFBE5C" opacity="1.000000" stroke="none" 
	d="
M253.633820,193.996902 
	C253.224686,195.181885 252.505539,196.488541 251.473343,197.897675 
	C251.881454,196.706299 252.602631,195.412445 253.633820,193.996902 
z"/>
<path fill="#FFBE5C" opacity="1.000000" stroke="none" 
	d="
M258.611633,185.999893 
	C258.207642,187.183380 257.496033,188.489304 256.471008,189.897705 
	C256.873016,188.707565 257.588470,187.414948 258.611633,185.999893 
z"/>
<path fill="#FFBE5C" opacity="1.000000" stroke="none" 
	d="
M243.080688,278.349854 
	C243.608521,279.149567 244.060654,280.299164 244.321854,281.700500 
	C243.755600,280.868073 243.380295,279.783936 243.080688,278.349854 
z"/>
<path fill="#FFBE5C" opacity="1.000000" stroke="none" 
	d="
M210.325958,292.916992 
	C210.835236,292.397430 211.670670,291.953430 212.730316,291.688171 
	C212.187057,292.242126 211.419586,292.617340 210.325958,292.916992 
z"/>
<path fill="#FFBE5C" opacity="1.000000" stroke="none" 
	d="
M217.325745,291.922363 
	C217.834595,291.401001 218.669189,290.956177 219.726395,290.691650 
	C219.183151,291.247620 218.417328,291.623260 217.325745,291.922363 
z"/>
<path fill="#FFBE5C" opacity="1.000000" stroke="none" 
	d="
M213.991882,229.327454 
	C213.997665,229.960770 213.854813,230.896027 213.433655,231.915588 
	C213.384644,231.209732 213.613953,230.419571 213.991882,229.327454 
z"/>
<path fill="#FFBE5C" opacity="1.000000" stroke="none" 
	d="
M203.000763,285.322968 
	C203.004852,285.956299 202.862564,286.892975 202.442902,287.914764 
	C202.395172,287.208679 202.624786,286.417511 203.000763,285.322968 
z"/>
<path fill="#FFBE5C" opacity="1.000000" stroke="none" 
	d="
M245.904785,286.963104 
	C245.889771,287.319763 245.534790,287.192780 245.351929,287.147461 
	C244.784225,286.294525 244.399414,285.486969 244.088989,284.339661 
	C244.748856,284.868744 245.334335,285.737610 245.904785,286.963104 
z"/>
<path fill="#FFBE5C" opacity="1.000000" stroke="none" 
	d="
M211.993469,240.326630 
	C211.999054,240.959946 211.856415,241.895447 211.435638,242.915482 
	C211.386765,242.209595 211.615997,241.419205 211.993469,240.326630 
z"/>
<path fill="#FFBE5C" opacity="1.000000" stroke="none" 
	d="
M203.994934,280.325958 
	C204.000153,280.959259 203.857513,281.894958 203.436920,282.915283 
	C203.388336,282.209351 203.617722,281.418884 203.994934,280.325958 
z"/>
<path fill="#FFBE5C" opacity="1.000000" stroke="none" 
	d="
M210.987946,245.329880 
	C210.995056,245.963028 210.852524,246.897308 210.431442,247.915680 
	C210.381363,247.210175 210.609848,246.420609 210.987946,245.329880 
z"/>
<path fill="#FFBE5C" opacity="1.000000" stroke="none" 
	d="
M209.984406,250.332092 
	C209.992783,250.965057 209.850677,251.898438 209.429840,252.915710 
	C209.378708,252.210556 209.606308,251.421524 209.984406,250.332092 
z"/>
<path fill="#FFBE5C" opacity="1.000000" stroke="none" 
	d="
M204.988388,275.329468 
	C204.995880,275.962555 204.853943,276.896912 204.433685,277.915558 
	C204.383240,277.210144 204.611099,276.420441 204.988388,275.329468 
z"/>
<path fill="#FFBE5C" opacity="1.000000" stroke="none" 
	d="
M205.984863,270.331635 
	C205.993378,270.964569 205.851593,271.898071 205.431229,272.915558 
	C205.379959,272.210449 205.607254,271.421326 205.984863,270.331635 
z"/>
<path fill="#FFF3E0" opacity="1.000000" stroke="none" 
	d="
M290.977142,255.622620 
	C290.248199,256.285645 289.417572,256.637085 288.242523,256.977600 
	C288.239258,255.243607 288.337341,253.083450 290.977142,255.622620 
z"/>
<path fill="#FFBE5C" opacity="1.000000" stroke="none" 
	d="
M232.013550,271.666626 
	C232.003845,271.034698 232.141205,270.102844 232.555786,269.085571 
	C232.608856,269.789001 232.384720,270.577820 232.013550,271.666626 
z"/>
<path fill="#FFBE5C" opacity="1.000000" stroke="none" 
	d="
M206.982452,265.333435 
	C206.991821,265.966248 206.850189,266.898956 206.429825,267.915588 
	C206.377884,267.210754 206.604675,266.422089 206.982452,265.333435 
z"/>
<path fill="#FFBE5C" opacity="1.000000" stroke="none" 
	d="
M282.578369,174.079788 
	C281.517181,174.280121 280.048523,174.402023 278.313049,174.327652 
	C279.421173,174.088028 280.796021,174.044678 282.578369,174.079788 
z"/>
<path fill="#FFBE5C" opacity="1.000000" stroke="none" 
	d="
M247.019958,190.662689 
	C247.009140,190.030853 247.147156,189.100220 247.563126,188.084808 
	C247.616989,188.787979 247.392899,189.575928 247.019958,190.662689 
z"/>
<path fill="#FFBE5C" opacity="1.000000" stroke="none" 
	d="
M219.996399,191.325348 
	C219.999832,191.958893 219.855667,192.895187 219.433167,193.915665 
	C219.386154,193.209259 219.617493,192.418686 219.996399,191.325348 
z"/>
<path fill="#FFBE5C" opacity="1.000000" stroke="none" 
	d="
M261.917908,226.669693 
	C261.680786,226.379135 261.519257,225.758057 261.600677,225.068542 
	C261.893555,225.446442 261.943512,225.892822 261.917908,226.669693 
z"/>
<path fill="#FFBE5C" opacity="1.000000" stroke="none" 
	d="
M297.795776,172.629211 
	C296.760315,172.843414 295.667999,172.685791 294.311310,172.329559 
	C295.277618,172.173096 296.508270,172.215225 297.795776,172.629211 
z"/>
<path fill="#FFBE5C" opacity="1.000000" stroke="none" 
	d="
M290.594971,173.075592 
	C289.833405,173.274689 288.681763,173.394608 287.285950,173.324799 
	C288.096130,173.088852 289.150482,173.042633 290.594971,173.075592 
z"/>
<path fill="#FFBE5C" opacity="1.000000" stroke="none" 
	d="
M223.307190,290.913086 
	C223.570068,290.480713 224.140182,290.123291 224.888062,289.947510 
	C224.582031,290.415466 224.098236,290.701752 223.307190,290.913086 
z"/>
<path fill="#FFBE5C" opacity="1.000000" stroke="none" 
	d="
M222.645447,175.081985 
	C222.568863,175.720413 222.137589,176.285812 221.434174,176.925568 
	C221.538269,176.336273 221.914536,175.672623 222.645447,175.081985 
z"/>
<path fill="#FFBE5C" opacity="1.000000" stroke="none" 
	d="
M272.595062,175.079651 
	C271.833221,175.277740 270.680481,175.397980 269.280945,175.331024 
	C270.090820,175.096497 271.147522,175.049164 272.595062,175.079651 
z"/>
<path fill="#FFBE5C" opacity="1.000000" stroke="none" 
	d="
M248.433228,184.952316 
	C248.208694,184.431030 248.276642,183.784897 248.595856,183.069443 
	C248.806656,183.609238 248.766190,184.218353 248.433228,184.952316 
z"/>
<path fill="#FFBE5C" opacity="1.000000" stroke="none" 
	d="
M234.429199,260.944397 
	C234.205460,260.425293 234.272903,259.782074 234.590698,259.069519 
	C234.800842,259.606873 234.760620,260.213623 234.429199,260.944397 
z"/>
<path fill="#FFBE5C" opacity="1.000000" stroke="none" 
	d="
M236.430023,250.945770 
	C236.205597,250.426376 236.272491,249.782761 236.589706,249.069565 
	C236.800476,249.607178 236.760910,250.214371 236.430023,250.945770 
z"/>
<path fill="#FFBE5C" opacity="1.000000" stroke="none" 
	d="
M238.251724,246.078857 
	C238.347107,245.630005 238.650604,245.142151 238.954086,244.654297 
	C239.041458,245.012589 239.128830,245.370895 239.049530,245.893982 
	C238.882858,246.058777 238.459824,246.039841 238.251724,246.078857 
z"/>
<path fill="#FFBE5C" opacity="1.000000" stroke="none" 
	d="
M255.665085,190.981506 
	C255.543289,191.522705 255.136322,192.168152 254.440414,192.906662 
	C254.560959,192.361740 254.970428,191.723740 255.665085,190.981506 
z"/>
<path fill="#FFBE5C" opacity="1.000000" stroke="none" 
	d="
M248.661133,201.979401 
	C248.538956,202.522125 248.130951,203.168106 247.433105,203.906311 
	C247.553940,203.359909 247.964645,202.721298 248.661133,201.979401 
z"/>
<path fill="#FFBE5C" opacity="1.000000" stroke="none" 
	d="
M287.278351,188.058960 
	C287.415558,187.519287 287.838257,186.857071 288.555847,186.097717 
	C288.421814,186.645874 287.992828,187.291138 287.278351,188.058960 
z"/>
<path fill="#FFBE5C" opacity="1.000000" stroke="none" 
	d="
M260.658142,182.978363 
	C260.536255,183.521866 260.128235,184.168060 259.429993,184.906036 
	C259.550476,184.358887 259.961243,183.719971 260.658142,182.978363 
z"/>
<path fill="#FFBE5C" opacity="1.000000" stroke="none" 
	d="
M268.331024,215.011383 
	C268.457153,214.475693 268.867310,213.830444 269.567383,213.093369 
	C269.443237,213.634995 269.029144,214.268417 268.331024,215.011383 
z"/>
<path fill="#FFBE5C" opacity="1.000000" stroke="none" 
	d="
M290.334900,184.013428 
	C290.459839,183.476929 290.868683,182.831207 291.567474,182.093536 
	C291.444550,182.635788 291.031677,183.269974 290.334900,184.013428 
z"/>
<path fill="#FFBE5C" opacity="1.000000" stroke="none" 
	d="
M262.663574,179.980804 
	C262.542114,180.522491 262.135254,181.168076 261.439270,181.906616 
	C261.559540,181.361298 261.968872,180.723007 262.663574,179.980804 
z"/>
<path fill="#FFBE5C" opacity="1.000000" stroke="none" 
	d="
M264.666809,176.983093 
	C264.544708,177.523422 264.137878,178.168472 263.442383,178.906708 
	C263.563202,178.362534 263.972656,177.725174 264.666809,176.983093 
z"/>
<path fill="#FFBE5C" opacity="1.000000" stroke="none" 
	d="
M295.278076,177.056931 
	C295.415131,176.517700 295.837311,175.856201 296.553986,175.097504 
	C296.420044,175.645065 295.991638,176.289871 295.278076,177.056931 
z"/>
<path fill="#FFBE5C" opacity="1.000000" stroke="none" 
	d="
M226.973831,175.619598 
	C226.270691,175.809052 225.416489,175.672882 224.294586,175.348038 
	C224.958847,175.204224 225.890808,175.249100 226.973831,175.619598 
z"/>
<path fill="#FFBE5C" opacity="1.000000" stroke="none" 
	d="
M283.986847,286.350952 
	C284.522125,286.472168 285.167999,286.874756 285.906219,287.566864 
	C285.364868,287.448364 284.731140,287.040314 283.986847,286.350952 
z"/>
<path fill="#FFBE5C" opacity="1.000000" stroke="none" 
	d="
M266.332764,218.012177 
	C266.458740,217.476227 266.868927,216.830688 267.569336,216.093597 
	C267.445343,216.635559 267.031128,217.269089 266.332764,218.012177 
z"/>
<path fill="#FFBE5C" opacity="1.000000" stroke="none" 
	d="
M262.876556,230.707397 
	C262.421967,230.474777 261.995605,229.949356 261.709412,229.226593 
	C262.201294,229.491028 262.553070,229.952820 262.876556,230.707397 
z"/>
<path fill="#FFBE5C" opacity="1.000000" stroke="none" 
	d="
M264.331238,221.011292 
	C264.457703,220.475662 264.868378,219.830353 265.569153,219.093475 
	C265.444672,219.635147 265.030060,220.268356 264.331238,221.011292 
z"/>
<path fill="#FFBE5C" opacity="1.000000" stroke="none" 
	d="
M262.327087,224.006973 
	C262.454315,223.472534 262.865295,222.828598 263.565796,222.092941 
	C263.440491,222.633301 263.025665,223.265396 262.327087,224.006973 
z"/>
<path fill="#FFBE5C" opacity="1.000000" stroke="none" 
	d="
M282.278503,195.063049 
	C282.415955,194.522476 282.839478,193.858780 283.558716,193.098114 
	C283.424438,193.647400 282.994476,194.293655 282.278503,195.063049 
z"/>
<path fill="#FFBE5C" opacity="1.000000" stroke="none" 
	d="
M277.278717,202.061615 
	C277.416229,201.521347 277.839661,200.858109 278.558655,200.097961 
	C278.424347,200.646912 277.994507,201.292786 277.278717,202.061615 
z"/>
<path fill="#FFBE5C" opacity="1.000000" stroke="none" 
	d="
M250.668243,198.983871 
	C250.545807,199.523651 250.138916,200.168503 249.443542,200.906677 
	C249.564651,200.362961 249.974228,199.725952 250.668243,198.983871 
z"/>
<path fill="#FFBE5C" opacity="1.000000" stroke="none" 
	d="
M270.328491,212.009949 
	C270.454865,211.474701 270.864929,210.829971 271.564453,210.093109 
	C271.440033,210.634140 271.026093,211.267303 270.328491,212.009949 
z"/>
<path fill="#FFBE5C" opacity="1.000000" stroke="none" 
	d="
M268.080261,252.613495 
	C267.930573,252.419800 267.747467,251.907654 267.713440,251.216385 
	C267.923981,251.456512 267.985382,251.875778 268.080261,252.613495 
z"/>
<path fill="#FFBE5C" opacity="1.000000" stroke="none" 
	d="
M263.078888,234.622406 
	C262.932312,234.427444 262.746307,233.912048 262.708008,233.214203 
	C262.916962,233.455170 262.978210,233.878586 263.078888,234.622406 
z"/>
<path fill="#FFF3E0" opacity="1.000000" stroke="none" 
	d="
M291.910004,257.669830 
	C291.508057,257.493958 291.179626,256.998901 290.954163,256.209686 
	C291.365967,256.393890 291.674713,256.872253 291.910004,257.669830 
z"/>
<path fill="#FFF3E0" opacity="1.000000" stroke="none" 
	d="
M287.637878,257.017151 
	C287.827637,257.564575 287.709198,258.216583 287.242004,258.926270 
	C287.038757,258.363190 287.184204,257.742462 287.637878,257.017151 
z"/>
<path fill="#FFF3E0" opacity="1.000000" stroke="none" 
	d="
M286.639526,259.016968 
	C286.827698,259.563416 286.707520,260.214478 286.240448,260.925110 
	C286.039429,260.363678 286.185303,259.742615 286.639526,259.016968 
z"/>
<path fill="#FFBE5C" opacity="1.000000" stroke="none" 
	d="
M274.943298,274.651367 
	C274.762299,274.437744 274.657745,273.904449 274.707825,273.203613 
	C274.914917,273.467957 274.967377,273.899872 274.943298,274.651367 
z"/>
<path fill="#FFF3E0" opacity="1.000000" stroke="none" 
	d="
M285.640259,261.016785 
	C285.825928,261.559021 285.702759,262.205872 285.236694,262.919983 
	C285.039673,262.365326 285.185516,261.743347 285.640259,261.016785 
z"/>
<path fill="#FFF3E0" opacity="1.000000" stroke="none" 
	d="
M284.640869,263.016052 
	C284.824860,263.556061 284.698975,264.199615 284.233612,264.916229 
	C284.039734,264.366058 284.185364,263.742828 284.640869,263.016052 
z"/>
<path fill="#FFBE5C" opacity="1.000000" stroke="none" 
	d="
M266.074219,245.570801 
	C265.923492,245.384323 265.746704,244.888672 265.717468,244.216385 
	C265.926086,244.447037 265.987122,244.854309 266.074219,245.570801 
z"/>
<path fill="#FFBE5C" opacity="1.000000" stroke="none" 
	d="
M232.948242,266.656067 
	C232.825241,266.424622 232.781601,265.881073 232.929123,265.198090 
	C233.089386,265.487061 233.058502,265.915527 232.948242,266.656067 
z"/>
<path fill="#FFF3E0" opacity="1.000000" stroke="none" 
	d="
M283.641571,265.015747 
	C283.824249,265.553558 283.696411,266.194519 283.231689,266.913269 
	C283.040222,266.367035 283.185638,265.742950 283.641571,265.015747 
z"/>
<path fill="#FFF3E0" opacity="1.000000" stroke="none" 
	d="
M282.642242,267.015869 
	C282.824585,267.551575 282.695465,268.190521 282.232727,268.913666 
	C282.042969,268.371613 282.186890,267.745361 282.642242,267.015869 
z"/>
<path fill="#FFBE5C" opacity="1.000000" stroke="none" 
	d="
M233.321396,265.017822 
	C233.174438,264.820129 233.322495,264.562500 233.677902,264.175964 
	C233.748856,264.323792 233.659256,264.627380 233.321396,265.017822 
z"/>
<path fill="#FFBE5C" opacity="1.000000" stroke="none" 
	d="
M268.881287,253.728470 
	C268.604156,253.796661 268.412262,253.568542 268.167908,253.100739 
	C268.356903,253.086945 268.640564,253.277328 268.881287,253.728470 
z"/>
<path fill="#FFBE5C" opacity="1.000000" stroke="none" 
	d="
M235.327850,255.015808 
	C235.180786,254.816757 235.328903,254.560257 235.682678,254.175293 
	C235.754486,254.324432 235.666061,254.628265 235.327850,255.015808 
z"/>
<path fill="#FFBE5C" opacity="1.000000" stroke="none" 
	d="
M244.947662,200.760178 
	C244.627777,200.723190 244.619461,200.477386 244.967865,200.165588 
	C245.095306,200.095459 245.029922,200.547256 244.947662,200.760178 
z"/>
<path fill="#FFBE5C" opacity="1.000000" stroke="none" 
	d="
M234.941437,255.760941 
	C234.625305,255.720322 234.620255,255.469254 234.972992,255.155151 
	C235.102020,255.085083 235.023727,255.543472 234.941437,255.760941 
z"/>
<path fill="#FFBE5C" opacity="1.000000" stroke="none" 
	d="
M263.873779,235.727692 
	C263.598206,235.794708 263.405334,235.565384 263.160187,235.095490 
	C263.348785,235.082382 263.631653,235.274521 263.873779,235.727692 
z"/>
<path fill="#FFBE5C" opacity="1.000000" stroke="none" 
	d="
M229.944244,281.760895 
	C229.626404,281.722198 229.619553,281.474091 229.969574,281.161438 
	C230.097672,281.091370 230.026443,281.545990 229.944244,281.760895 
z"/>
<path fill="#FFBE5C" opacity="1.000000" stroke="none" 
	d="
M230.330246,281.015259 
	C230.183960,280.814697 230.333130,280.559143 230.686478,280.175323 
	C230.758621,280.325928 230.670319,280.630341 230.330246,281.015259 
z"/>
<path fill="#FFBE5C" opacity="1.000000" stroke="none" 
	d="
M230.946518,276.760681 
	C230.627365,276.723083 230.619537,276.476654 230.968414,276.164734 
	C231.096054,276.094696 231.028748,276.547211 230.946518,276.760681 
z"/>
<path fill="#FFBE5C" opacity="1.000000" stroke="none" 
	d="
M231.331055,276.015320 
	C231.185501,275.813965 231.335434,275.558899 231.688538,275.175507 
	C231.760803,275.326965 231.672409,275.631775 231.331055,276.015320 
z"/>
<path fill="#FFBE5C" opacity="1.000000" stroke="none" 
	d="
M245.330643,200.015045 
	C245.185684,199.813583 245.335983,199.558792 245.688965,199.175568 
	C245.761063,199.327225 245.672485,199.632080 245.330643,200.015045 
z"/>
<path fill="#000000" opacity="1.000000" stroke="none" 
	d="
M158.291214,226.338181 
	C161.937500,218.634766 166.248184,211.855820 174.062073,208.571396 
	C182.796021,204.900253 187.608292,206.339935 187.757080,215.746323 
	C188.040787,233.682861 183.750198,250.441544 169.477432,262.936096 
	C162.575989,268.977661 152.272888,267.101227 151.152893,259.700165 
	C150.585785,255.952545 150.294189,251.864883 151.190247,248.256851 
	C153.008331,240.936020 155.718979,233.836853 158.291214,226.338181 
z"/>
<path fill="#000000" opacity="1.000000" stroke="none" 
	d="
M463.033936,205.170868 
	C463.883698,202.040817 464.707001,199.333588 465.530304,196.626358 
	C465.838654,196.672775 466.147003,196.719208 466.455353,196.765625 
	C465.673126,203.388214 464.774323,209.999725 464.144104,216.636734 
	C463.601562,222.350082 463.396790,228.094772 462.982880,233.821274 
	C462.700531,237.727844 462.699890,241.709946 461.880249,245.508743 
	C460.819641,250.424469 456.725067,248.776245 452.420807,248.976318 
	C456.037598,234.155258 459.522522,219.874466 463.033936,205.170868 
z"/>
<path fill="#FFBE5C" opacity="1.000000" stroke="none" 
	d="
M244.001633,209.001831 
	C243.669785,209.443069 243.336319,209.882477 243.002838,210.321884 
	C242.893295,210.222672 242.783737,210.123459 242.674179,210.024246 
	C242.957611,209.717865 243.241043,209.411484 243.760406,209.050934 
	C243.996338,208.996765 244.000000,209.000000 244.001633,209.001831 
z"/>
</svg>